<?xml version="1.0" encoding="UTF-8"?>
<svg version="1.1" xmlns="http://www.w3.org/2000/svg" width="453" height="340">
<path d="M0 0 C3.76658435 4.37381408 6.18249392 9.77348139 8.671875 14.94140625 C9.43371094 14.83441406 10.19554687 14.72742188 10.98046875 14.6171875 C17.7655035 13.82941193 23.62709579 13.3795114 29.671875 16.94140625 C35.19045 21.53484002 38.22188967 26.94004851 39.671875 33.94140625 C39.671875 34.93140625 39.671875 35.92140625 39.671875 36.94140625 C32.8000629 39.07583274 22.81174548 39.3670548 16.109375 36.50390625 C11.65224425 33.82182538 9.17331483 29.37577686 6.671875 24.94140625 C0.63019079 28.96919572 -0.7823842 32.95845439 -2.328125 39.94140625 C-1.76609375 40.19019531 -1.2040625 40.43898437 -0.625 40.6953125 C15.31851956 49.34494301 25.00000296 68.72387619 30.171875 85.44140625 C30.68688502 87.27057978 31.19322519 89.10238328 31.671875 90.94140625 C39.07422927 90.53016435 46.30742798 88.30585327 51.671875 82.94140625 C51.09567559 79.91068809 50.1875801 77.03555376 49.30078125 74.08203125 C48.61130041 70.63890953 48.77828222 68.32256812 49.671875 64.94140625 C50.331875 64.28140625 50.991875 63.62140625 51.671875 62.94140625 C55.51364574 63.24470394 57.76615172 64.46616049 60.671875 66.94140625 C60.73375 66.24015625 60.795625 65.53890625 60.859375 64.81640625 C61.96388702 60.90813295 63.95418492 58.93783377 66.671875 55.94140625 C68.321875 56.27140625 69.971875 56.60140625 71.671875 56.94140625 C72.671875 63.69140625 72.671875 63.69140625 72.671875 65.94140625 C73.538125 65.42578125 74.404375 64.91015625 75.296875 64.37890625 C79.06590993 62.77357656 80.78072599 62.9222958 84.671875 63.94140625 C85.484375 65.56640625 85.484375 65.56640625 85.671875 67.94140625 C84.20369364 70.1875046 82.51334642 71.96519302 80.671875 73.94140625 C82.981875 74.60140625 85.291875 75.26140625 87.671875 75.94140625 C88.001875 77.59140625 88.331875 79.24140625 88.671875 80.94140625 C85.1631562 84.0373346 82.17990101 85.68335248 77.671875 86.94140625 C78.1875 87.33328125 78.703125 87.72515625 79.234375 88.12890625 C79.70875 88.72703125 80.183125 89.32515625 80.671875 89.94140625 C80.359375 92.62890625 80.359375 92.62890625 79.671875 94.94140625 C75.03236175 96.02418778 72.40861145 95.7202136 67.984375 94.06640625 C64.28435222 93.05482367 62.46953756 92.60116035 58.90625 94.12109375 C57.09278952 95.35657999 55.30777509 96.63467023 53.55078125 97.94921875 C47.88306842 101.87124526 41.16850325 103.7758635 34.671875 105.94140625 C34.52492188 107.84599609 34.52492188 107.84599609 34.375 109.7890625 C32.3620149 133.75083293 25.86775424 154.46637313 8.671875 171.94140625 C7.8984375 172.72773438 7.125 173.5140625 6.328125 174.32421875 C0.05363611 180.33387531 -6.57220492 184.16069913 -14.328125 187.94140625 C-13.85375 188.70453125 -13.379375 189.46765625 -12.890625 190.25390625 C-11.328125 192.94140625 -11.328125 192.94140625 -10.328125 195.94140625 C-9.82023438 195.53148437 -9.31234375 195.1215625 -8.7890625 194.69921875 C-1.58394722 189.0592596 4.46175719 186.92660195 13.671875 187.94140625 C17.35810511 189.55413192 18.425425 190.57173125 20.671875 193.94140625 C21.75049496 201.29563325 19.74438181 206.03989672 15.484375 212.00390625 C10.83075359 217.32831994 4.60559472 220.70324201 -2.328125 221.94140625 C-6.55527397 222.00619014 -9.67322046 221.37336457 -13.265625 219.00390625 C-15.41975278 216.84977847 -16.26597726 215.90469626 -16.4609375 212.8828125 C-16.45835937 212.09777344 -16.45578125 211.31273437 -16.453125 210.50390625 C-16.45570313 209.72144531 -16.45828125 208.93898438 -16.4609375 208.1328125 C-16.328125 205.94140625 -16.328125 205.94140625 -15.328125 202.94140625 C-18.15293441 198.15151204 -22.09817186 195.55493136 -27.328125 193.94140625 C-30.94497423 193.88458587 -34.34595898 194.51573133 -37.890625 195.19140625 C-39.8543565 195.5082737 -41.81922593 195.81816738 -43.78515625 196.12109375 C-44.73600098 196.26901367 -45.6868457 196.41693359 -46.66650391 196.56933594 C-60.68481745 198.5289681 -75.73083664 196.47393006 -89.015625 191.69140625 C-94.4204273 189.76324675 -97.85384595 189.55728703 -103.26953125 191.71484375 C-105.52001196 192.92419298 -106.81138296 193.87114053 -108.328125 195.94140625 C-108.85732232 199.02696806 -108.95424901 201.98950189 -109.02734375 205.1171875 C-109.34177986 208.06962008 -109.68808389 209.08728804 -111.765625 211.12890625 C-115.9512294 214.0894557 -119.26349931 214.66612806 -124.328125 213.94140625 C-133.14584198 210.99758186 -138.12550389 205.59037238 -143.265625 198.12890625 C-144.84844457 193.38044755 -145.15612166 188.88680449 -144.328125 183.94140625 C-142.1265276 181.04456757 -140.54218038 179.54843394 -137.328125 177.94140625 C-128.25456718 177.015533 -121.64055815 181.35227761 -114.76171875 186.76953125 C-114.28863281 187.15625 -113.81554687 187.54296875 -113.328125 187.94140625 C-110.358125 185.46640625 -110.358125 185.46640625 -107.328125 182.94140625 C-108.57916016 182.03261719 -108.57916016 182.03261719 -109.85546875 181.10546875 C-129.72892943 166.42179836 -142.32628299 146.45872543 -146.328125 121.94140625 C-146.65038774 116.82702017 -146.61665971 111.75058901 -146.515625 106.62890625 C-146.50052336 105.291031 -146.48684481 103.95313891 -146.47460938 102.61523438 C-146.43968097 99.39017877 -146.39063624 96.16602477 -146.328125 92.94140625 C-146.99967433 94.23054112 -147.66521359 95.52280829 -148.328125 96.81640625 C-148.699375 97.53570312 -149.070625 98.255 -149.453125 98.99609375 C-150.46486246 100.88989602 -150.46486246 100.88989602 -150.328125 102.94140625 C-149.338125 103.60140625 -148.348125 104.26140625 -147.328125 104.94140625 C-147.92685603 108.74515939 -149.04116688 111.67752429 -150.83984375 115.07421875 C-151.35095703 116.04617187 -151.86207031 117.018125 -152.38867188 118.01953125 C-152.92556641 119.025 -153.46246094 120.03046875 -154.015625 121.06640625 C-154.53318359 122.04867187 -155.05074219 123.0309375 -155.58398438 124.04296875 C-159.10533311 130.70853548 -162.70348947 137.3315381 -166.328125 143.94140625 C-170.67225613 143.32962801 -173.92242335 141.75007323 -177.765625 139.66796875 C-178.66945923 139.18135269 -178.66945923 139.18135269 -179.59155273 138.68490601 C-181.50710726 137.65149026 -183.41754275 136.60898041 -185.328125 135.56640625 C-186.61166928 134.87312388 -187.89552071 134.18040986 -189.1796875 133.48828125 C-194.28514598 130.72850025 -199.37136825 127.96322793 -204.328125 124.94140625 C-202.66730753 118.8956256 -199.60717819 113.69512008 -196.578125 108.25390625 C-196.06507813 107.32384766 -195.55203125 106.39378906 -195.0234375 105.43554688 C-193.9894022 103.56103314 -192.9536023 101.6874917 -191.91601562 99.81494141 C-189.36661423 95.2014029 -186.84721073 90.57154886 -184.328125 85.94140625 C-179.578125 86.81640625 -179.578125 86.81640625 -177.328125 87.94140625 C-175.348125 85.30140625 -173.368125 82.66140625 -171.328125 79.94140625 C-172.689375 80.43640625 -174.050625 80.93140625 -175.453125 81.44140625 C-179.21464558 82.69722099 -182.32865025 83.33159891 -186.328125 82.94140625 C-186.988125 82.61140625 -187.648125 82.28140625 -188.328125 81.94140625 C-188.515625 79.62890625 -188.515625 79.62890625 -188.328125 76.94140625 C-186.81640625 75.2734375 -186.81640625 75.2734375 -185.328125 73.94140625 C-185.95460938 73.74804688 -186.58109375 73.5546875 -187.2265625 73.35546875 C-188.04382813 73.09507812 -188.86109375 72.8346875 -189.703125 72.56640625 C-190.51523438 72.31117188 -191.32734375 72.0559375 -192.1640625 71.79296875 C-194.328125 70.94140625 -194.328125 70.94140625 -196.328125 68.94140625 C-196.453125 66.31640625 -196.453125 66.31640625 -196.328125 63.94140625 C-194.018125 62.95140625 -191.708125 61.96140625 -189.328125 60.94140625 C-190.00875 60.21953125 -190.689375 59.49765625 -191.390625 58.75390625 C-193.328125 55.94140625 -193.328125 55.94140625 -193.078125 53.12890625 C-192.830625 52.40703125 -192.583125 51.68515625 -192.328125 50.94140625 C-187.39541971 49.29717115 -184.78788307 50.75525033 -180.328125 52.94140625 C-180.34875 51.64203125 -180.369375 50.34265625 -180.390625 49.00390625 C-180.41211954 47.64974992 -180.39960699 46.29384542 -180.328125 44.94140625 C-179.328125 43.94140625 -179.328125 43.94140625 -176.078125 43.81640625 C-171.75906754 45.11212349 -171.46023225 45.72642827 -169.390625 49.50390625 C-168.67861232 50.97143077 -167.98302132 52.44751834 -167.328125 53.94140625 C-166.77125 53.26078125 -166.214375 52.58015625 -165.640625 51.87890625 C-163.328125 49.94140625 -163.328125 49.94140625 -160.640625 50.06640625 C-158.328125 50.94140625 -158.328125 50.94140625 -157.328125 52.94140625 C-156.9920637 59.21455054 -157.92669734 64.83518575 -159.328125 70.94140625 C-158.66425781 71.19535156 -158.00039062 71.44929688 -157.31640625 71.7109375 C-152.72058804 73.50230022 -148.55203521 75.38146067 -144.328125 77.94140625 C-143.338125 77.94140625 -142.348125 77.94140625 -141.328125 77.94140625 C-140.93882812 77.08160156 -140.54953125 76.22179687 -140.1484375 75.3359375 C-129.41820997 52.66400514 -111.44158679 35.71122744 -87.81103516 26.78955078 C-63.07609424 18.01596345 -38.11270215 20.60451237 -14.328125 30.94140625 C-12.32072848 31.92647438 -10.31858543 32.92255039 -8.328125 33.94140625 C-7.956875 32.61109375 -7.956875 32.61109375 -7.578125 31.25390625 C-6.28877732 27.8371349 -4.72832371 25.66163145 -2.328125 22.94140625 C-3.1015625 22.80605469 -3.875 22.67070313 -4.671875 22.53125 C-12.11079269 20.99375092 -17.58170634 19.07980346 -22.328125 12.94140625 C-24.87240944 8.24315373 -26.328125 4.30621358 -26.328125 -1.05859375 C-18.06301274 -4.7049668 -7.51186079 -5.99160325 0 0 Z M-169.15234375 84.47265625 C-170.07466797 85.4471875 -170.07466797 85.4471875 -171.015625 86.44140625 C-171.63824219 87.09109375 -172.26085937 87.74078125 -172.90234375 88.41015625 C-173.37285156 88.91546875 -173.84335938 89.42078125 -174.328125 89.94140625 C-171.74932629 91.96760523 -169.26053946 93.49584983 -166.328125 94.94140625 C-164.40794703 95.976586 -162.4914579 97.01862871 -160.578125 98.06640625 C-159.10085937 98.87464844 -159.10085937 98.87464844 -157.59375 99.69921875 C-156.84609375 100.10914063 -156.0984375 100.5190625 -155.328125 100.94140625 C-153.678125 97.64140625 -152.028125 94.34140625 -150.328125 90.94140625 C-152.59457558 89.60009864 -154.86572597 88.26824391 -157.140625 86.94140625 C-158.10452148 86.3690625 -158.10452148 86.3690625 -159.08789062 85.78515625 C-164.11501259 82.51613254 -164.11501259 82.51613254 -169.15234375 84.47265625 Z M-79.328125 99.94140625 C-79.4097332 102.31711168 -79.46889722 104.68996466 -79.515625 107.06640625 C-79.54076172 107.7315625 -79.56589844 108.39671875 -79.59179688 109.08203125 C-79.69392255 116.02657698 -77.03547291 120.97253902 -72.328125 125.94140625 C-66.43137535 130.04708708 -61.4785974 131.51805725 -54.328125 130.94140625 C-47.2880234 129.06253669 -41.52054295 126.02430444 -37.328125 119.94140625 C-35.19123378 115.40764595 -33.328125 110.99381532 -33.328125 105.94140625 C-34.26942261 105.88194824 -34.26942261 105.88194824 -35.22973633 105.82128906 C-47.97760147 104.98064289 -60.27669875 103.67130158 -72.72265625 100.74609375 C-76.20042302 99.83249322 -76.20042302 99.83249322 -79.328125 99.94140625 Z M-189.640625 105.62890625 C-191.64260925 107.83800571 -191.64260925 107.83800571 -191.078125 110.69140625 C-190.830625 111.43390625 -190.583125 112.17640625 -190.328125 112.94140625 C-188.678125 113.27140625 -187.028125 113.60140625 -185.328125 113.94140625 C-186.318125 113.28140625 -187.308125 112.62140625 -188.328125 111.94140625 C-188.658125 110.95140625 -188.988125 109.96140625 -189.328125 108.94140625 C-185.368125 109.93140625 -185.368125 109.93140625 -181.328125 110.94140625 C-180.998125 109.29140625 -180.668125 107.64140625 -180.328125 105.94140625 C-183.99420468 103.49735313 -185.96599062 102.9474163 -189.640625 105.62890625 Z M-179.203125 111.12890625 C-180.69178816 113.527308 -180.61990808 115.16946696 -180.328125 117.94140625 C-179.20278395 119.29759124 -179.20278395 119.29759124 -176.265625 119.00390625 C-175.29625 118.98328125 -174.326875 118.96265625 -173.328125 118.94140625 C-174.648125 118.28140625 -175.968125 117.62140625 -177.328125 116.94140625 C-177.140625 115.06640625 -177.140625 115.06640625 -176.328125 112.94140625 C-173.765625 111.69140625 -173.765625 111.69140625 -171.328125 110.94140625 C-171.328125 110.61140625 -171.328125 110.28140625 -171.328125 109.94140625 C-175.4742131 109.59362453 -175.4742131 109.59362453 -179.203125 111.12890625 Z M-171.328125 110.94140625 C-171.658125 112.26140625 -171.988125 113.58140625 -172.328125 114.94140625 C-171.668125 114.61140625 -171.008125 114.28140625 -170.328125 113.94140625 C-170.658125 112.95140625 -170.988125 111.96140625 -171.328125 110.94140625 Z M-168.515625 116.12890625 C-170.54480476 117.82295465 -170.54480476 117.82295465 -170.828125 120.44140625 C-170.52992808 123.03782834 -170.52992808 123.03782834 -168.640625 124.81640625 C-165.70890146 126.24265013 -164.37485946 125.98371014 -161.328125 124.94140625 C-158.97838682 123.04385481 -158.97838682 123.04385481 -159.203125 119.81640625 C-159.244375 118.86765625 -159.285625 117.91890625 -159.328125 116.94140625 C-162.75842377 115.04882762 -164.85477908 114.14158989 -168.515625 116.12890625 Z " fill="#31C2E8" transform="translate(284.328125,61.05859375)"/>
<path d="M0 0 C-2.33856325 7.32475098 -5.15859284 12.9074912 -11 18 C-11.99 18.33 -12.98 18.66 -14 19 C-14.33902824 20.33189667 -14.67201213 21.66534167 -15 23 C-20.06889537 26.34547094 -24.45410781 27.28548108 -30.4375 28.1875 C-38.3791677 29.63359472 -42.15922088 32.70698714 -47 39 C-47.51046875 39.62648437 -48.0209375 40.25296875 -48.546875 40.8984375 C-50.67712152 43.66775797 -52.2690889 46.46423742 -53.5625 49.6875 C-55.02895234 53.06671625 -56.27682161 54.59719554 -59 57 C-61.66566987 59.60220154 -63.93005302 61.89507954 -66 65 C-66.66 65 -67.32 65 -68 65 C-68 65.66 -68 66.32 -68 67 C-75.86956185 71.11454249 -82.03908822 73.35843647 -91 73 C-91.33 72.34 -91.66 71.68 -92 71 C-92.67154933 72.28913487 -93.33708859 73.58140204 -94 74.875 C-94.37125 75.59429687 -94.7425 76.31359375 -95.125 77.0546875 C-96.13673746 78.94848977 -96.13673746 78.94848977 -96 81 C-95.01 81.66 -94.02 82.32 -93 83 C-93.59873103 86.80375314 -94.71304188 89.73611804 -96.51171875 93.1328125 C-97.02283203 94.10476562 -97.53394531 95.07671875 -98.06054688 96.078125 C-98.59744141 97.08359375 -99.13433594 98.0890625 -99.6875 99.125 C-100.20505859 100.10726562 -100.72261719 101.08953125 -101.25585938 102.1015625 C-104.77720811 108.76712923 -108.37536447 115.39013185 -112 122 C-116.34413113 121.38822176 -119.59429835 119.80866698 -123.4375 117.7265625 C-124.34133423 117.23994644 -124.34133423 117.23994644 -125.26342773 116.74349976 C-127.17898226 115.71008401 -129.08941775 114.66757416 -131 113.625 C-132.28354428 112.93171763 -133.56739571 112.23900361 -134.8515625 111.546875 C-139.95702098 108.787094 -145.04324325 106.02182168 -150 103 C-148.33918253 96.95421935 -145.27905319 91.75371383 -142.25 86.3125 C-141.73695313 85.38244141 -141.22390625 84.45238281 -140.6953125 83.49414062 C-139.6612772 81.61962689 -138.6254773 79.74608545 -137.58789062 77.87353516 C-135.03848923 73.25999665 -132.51908573 68.63014261 -130 64 C-125.25 64.875 -125.25 64.875 -123 66 C-121.02 63.36 -119.04 60.72 -117 58 C-118.36125 58.495 -119.7225 58.99 -121.125 59.5 C-124.88652058 60.75581474 -128.00052525 61.39019266 -132 61 C-132.66 60.67 -133.32 60.34 -134 60 C-134.1875 57.6875 -134.1875 57.6875 -134 55 C-132.48828125 53.33203125 -132.48828125 53.33203125 -131 52 C-131.62648438 51.80664062 -132.25296875 51.61328125 -132.8984375 51.4140625 C-133.71570313 51.15367187 -134.53296875 50.89328125 -135.375 50.625 C-136.18710938 50.36976563 -136.99921875 50.11453125 -137.8359375 49.8515625 C-140 49 -140 49 -142 47 C-142.125 44.375 -142.125 44.375 -142 42 C-139.69 41.01 -137.38 40.02 -135 39 C-135.680625 38.278125 -136.36125 37.55625 -137.0625 36.8125 C-139 34 -139 34 -138.75 31.1875 C-138.37875 30.1046875 -138.37875 30.1046875 -138 29 C-133.06729471 27.3557649 -130.45975807 28.81384408 -126 31 C-126.020625 29.700625 -126.04125 28.40125 -126.0625 27.0625 C-126.08399454 25.70834367 -126.07148199 24.35243917 -126 23 C-125 22 -125 22 -121.75 21.875 C-117.43094254 23.17071724 -117.13210725 23.78502202 -115.0625 27.5625 C-114.35048732 29.03002452 -113.65489632 30.50611209 -113 32 C-112.443125 31.319375 -111.88625 30.63875 -111.3125 29.9375 C-109 28 -109 28 -106.3125 28.125 C-104 29 -104 29 -103 31 C-102.6639387 37.27314429 -103.59857234 42.8937795 -105 49 C-104.33613281 49.25394531 -103.67226562 49.50789063 -102.98828125 49.76953125 C-98.39246304 51.56089397 -94.22391021 53.44005442 -90 56 C-89.01 56 -88.02 56 -87 56 C-86.61070312 55.14019531 -86.22140625 54.28039062 -85.8203125 53.39453125 C-74.70907498 29.91756166 -56.05935262 13.22417521 -31.65234375 4.18359375 C-21.00317799 0.73258067 -11.17897671 -0.45871181 0 0 Z M-114.82421875 62.53125 C-115.74654297 63.50578125 -115.74654297 63.50578125 -116.6875 64.5 C-117.31011719 65.1496875 -117.93273437 65.799375 -118.57421875 66.46875 C-119.04472656 66.9740625 -119.51523438 67.479375 -120 68 C-117.42120129 70.02619898 -114.93241446 71.55444358 -112 73 C-110.07982203 74.03517975 -108.1633329 75.07722246 -106.25 76.125 C-104.77273437 76.93324219 -104.77273437 76.93324219 -103.265625 77.7578125 C-102.51796875 78.16773438 -101.7703125 78.57765625 -101 79 C-99.35 75.7 -97.7 72.4 -96 69 C-98.26645058 67.65869239 -100.53760097 66.32683766 -102.8125 65 C-103.77639648 64.42765625 -103.77639648 64.42765625 -104.75976562 63.84375 C-109.78688759 60.57472629 -109.78688759 60.57472629 -114.82421875 62.53125 Z M-135.3125 83.6875 C-137.31448425 85.89659946 -137.31448425 85.89659946 -136.75 88.75 C-136.5025 89.4925 -136.255 90.235 -136 91 C-134.35 91.33 -132.7 91.66 -131 92 C-131.99 91.34 -132.98 90.68 -134 90 C-134.33 89.01 -134.66 88.02 -135 87 C-131.04 87.99 -131.04 87.99 -127 89 C-126.67 87.35 -126.34 85.7 -126 84 C-129.66607968 81.55594688 -131.63786562 81.00601005 -135.3125 83.6875 Z M-124.875 89.1875 C-126.36366316 91.58590175 -126.29178308 93.22806071 -126 96 C-124.87465895 97.35618499 -124.87465895 97.35618499 -121.9375 97.0625 C-120.968125 97.041875 -119.99875 97.02125 -119 97 C-120.32 96.34 -121.64 95.68 -123 95 C-122.8125 93.125 -122.8125 93.125 -122 91 C-119.4375 89.75 -119.4375 89.75 -117 89 C-117 88.67 -117 88.34 -117 88 C-121.1460881 87.65221828 -121.1460881 87.65221828 -124.875 89.1875 Z M-117 89 C-117.33 90.32 -117.66 91.64 -118 93 C-117.34 92.67 -116.68 92.34 -116 92 C-116.33 91.01 -116.66 90.02 -117 89 Z M-114.1875 94.1875 C-116.21667976 95.8815484 -116.21667976 95.8815484 -116.5 98.5 C-116.20180308 101.09642209 -116.20180308 101.09642209 -114.3125 102.875 C-111.38077646 104.30124388 -110.04673446 104.04230389 -107 103 C-104.65026182 101.10244856 -104.65026182 101.10244856 -104.875 97.875 C-104.91625 96.92625 -104.9575 95.9775 -105 95 C-108.43029877 93.10742137 -110.52665408 92.20018364 -114.1875 94.1875 Z " fill="#39A831" transform="translate(230,83)"/>
<path d="M0 0 C3.76658435 4.37381408 6.18249392 9.77348139 8.671875 14.94140625 C9.43371094 14.83441406 10.19554687 14.72742188 10.98046875 14.6171875 C17.7655035 13.82941193 23.62709579 13.3795114 29.671875 16.94140625 C35.19045 21.53484002 38.22188967 26.94004851 39.671875 33.94140625 C39.671875 34.93140625 39.671875 35.92140625 39.671875 36.94140625 C32.8000629 39.07583274 22.81174548 39.3670548 16.109375 36.50390625 C11.65224425 33.82182538 9.17331483 29.37577686 6.671875 24.94140625 C0.63019079 28.96919572 -0.7823842 32.95845439 -2.328125 39.94140625 C-1.76609375 40.19019531 -1.2040625 40.43898437 -0.625 40.6953125 C15.31851956 49.34494301 25.00000296 68.72387619 30.171875 85.44140625 C30.68688502 87.27057978 31.19322519 89.10238328 31.671875 90.94140625 C39.07422927 90.53016435 46.30742798 88.30585327 51.671875 82.94140625 C51.09567559 79.91068809 50.1875801 77.03555376 49.30078125 74.08203125 C48.61130041 70.63890953 48.77828222 68.32256812 49.671875 64.94140625 C50.331875 64.28140625 50.991875 63.62140625 51.671875 62.94140625 C55.51364574 63.24470394 57.76615172 64.46616049 60.671875 66.94140625 C60.7646875 65.88953125 60.7646875 65.88953125 60.859375 64.81640625 C61.96388702 60.90813295 63.95418492 58.93783377 66.671875 55.94140625 C68.321875 56.27140625 69.971875 56.60140625 71.671875 56.94140625 C72.671875 63.69140625 72.671875 63.69140625 72.671875 65.94140625 C73.538125 65.42578125 74.404375 64.91015625 75.296875 64.37890625 C79.06590993 62.77357656 80.78072599 62.9222958 84.671875 63.94140625 C85.484375 65.56640625 85.484375 65.56640625 85.671875 67.94140625 C84.20369364 70.1875046 82.51334642 71.96519302 80.671875 73.94140625 C82.981875 74.60140625 85.291875 75.26140625 87.671875 75.94140625 C88.001875 77.59140625 88.331875 79.24140625 88.671875 80.94140625 C85.1631562 84.0373346 82.17990101 85.68335248 77.671875 86.94140625 C78.1875 87.33328125 78.703125 87.72515625 79.234375 88.12890625 C79.70875 88.72703125 80.183125 89.32515625 80.671875 89.94140625 C80.359375 92.62890625 80.359375 92.62890625 79.671875 94.94140625 C75.03236175 96.02418778 72.40861145 95.7202136 67.984375 94.06640625 C64.28435222 93.05482367 62.46953756 92.60116035 58.90625 94.12109375 C57.09278952 95.35657999 55.30777509 96.63467023 53.55078125 97.94921875 C47.88306842 101.87124526 41.16850325 103.7758635 34.671875 105.94140625 C34.57390625 107.21113281 34.4759375 108.48085937 34.375 109.7890625 C32.54961069 131.48856303 32.54961069 131.48856303 28.671875 140.94140625 C27.681875 141.27140625 26.691875 141.60140625 25.671875 141.94140625 C24.96675781 141.23371094 24.26164062 140.52601563 23.53515625 139.796875 C21.64970385 137.91009622 19.74974868 136.0421741 17.83984375 134.1796875 C0.78996945 117.5008937 0.78996945 117.5008937 -0.328125 110.94140625 C-0.988125 110.94140625 -1.648125 110.94140625 -2.328125 110.94140625 C-6.8776857 100.23406805 -6.8776857 100.23406805 -7.328125 94.94140625 C-7.39128906 94.28914063 -7.45445312 93.636875 -7.51953125 92.96484375 C-7.88345597 86.32028265 -5.81088056 81.02365882 -3.328125 74.94140625 C-0.76204633 67.24317024 -1.63544696 58.64541919 -5 51.34765625 C-9.11189749 43.8978655 -14.12657923 37.72849228 -20.328125 31.94140625 C-21.33157126 30.94486443 -22.33263282 29.94589384 -23.328125 28.94140625 C-22.338125 28.44640625 -22.338125 28.44640625 -21.328125 27.94140625 C-19.08502487 28.83806967 -16.88058179 29.83287308 -14.703125 30.87890625 C-13.51460938 31.44480469 -12.32609375 32.01070312 -11.1015625 32.59375 C-9.72871094 33.26083984 -9.72871094 33.26083984 -8.328125 33.94140625 C-8.04195313 33.01070312 -7.75578125 32.08 -7.4609375 31.12109375 C-6.25314684 27.7309503 -4.69325595 25.62188799 -2.328125 22.94140625 C-3.1015625 22.80605469 -3.875 22.67070313 -4.671875 22.53125 C-12.11079269 20.99375092 -17.58170634 19.07980346 -22.328125 12.94140625 C-24.87240944 8.24315373 -26.328125 4.30621358 -26.328125 -1.05859375 C-18.06301274 -4.7049668 -7.51186079 -5.99160325 0 0 Z " fill="#3AA830" transform="translate(284.328125,61.05859375)"/>
<path d="M0 0 C0.75410156 0.00322266 1.50820312 0.00644531 2.28515625 0.00976562 C3.06246094 0.01814453 3.83976562 0.02652344 4.640625 0.03515625 C5.43339844 0.03966797 6.22617188 0.04417969 7.04296875 0.04882812 C8.99222008 0.0605706 10.94143238 0.07850479 12.890625 0.09765625 C12.890625 0.75765625 12.890625 1.41765625 12.890625 2.09765625 C14.251875 2.12859375 14.251875 2.12859375 15.640625 2.16015625 C28.63206999 4.07606632 39.2884786 15.92640211 47.390625 25.37890625 C50.84372722 29.33558588 53.67190421 31.12167288 58.703125 32.41015625 C65.11100606 34.19595917 69.73942049 37.53152258 73.203125 43.2734375 C75.44474997 48.04513183 76.76967541 52.95997063 77.890625 58.09765625 C65.29652597 64.39470577 43.31300232 60.07314383 30.328125 55.97265625 C29.296875 55.60140625 28.265625 55.23015625 27.203125 54.84765625 C21.7983227 52.91949675 18.36490405 52.71353703 12.94921875 54.87109375 C10.69873804 56.08044298 9.40736704 57.02739053 7.890625 59.09765625 C7.36142768 62.18321806 7.26450099 65.14575189 7.19140625 68.2734375 C6.87697014 71.22587008 6.53066611 72.24353804 4.453125 74.28515625 C0.2675206 77.2457057 -3.04474931 77.82237806 -8.109375 77.09765625 C-16.92709198 74.15383186 -21.90675389 68.74662238 -27.046875 61.28515625 C-28.62969457 56.53669755 -28.93737166 52.04305449 -28.109375 47.09765625 C-25.9077776 44.20081757 -24.32343038 42.70468394 -21.109375 41.09765625 C-12.03581718 40.171783 -5.42180815 44.50852761 1.45703125 49.92578125 C1.93011719 50.3125 2.40320313 50.69921875 2.890625 51.09765625 C4.870625 49.44765625 6.850625 47.79765625 8.890625 46.09765625 C7.63958984 45.18886719 7.63958984 45.18886719 6.36328125 44.26171875 C-6.62263765 34.66696544 -18.37410608 22.99293083 -23.109375 7.09765625 C-20.69397194 6.11527217 -18.27715678 5.13665407 -15.859375 4.16015625 C-14.83650391 3.7434668 -14.83650391 3.7434668 -13.79296875 3.31835938 C-9.07267948 1.41649525 -5.09449872 -0.03859469 0 0 Z " fill="#3AA82F" transform="translate(168.109375,197.90234375)"/>
<path d="M0 0 C2.475 0.495 2.475 0.495 5 1 C3.44499019 4.81684226 0.96404505 7.19195732 -2 10 C-1.278125 10.2475 -0.55625 10.495 0.1875 10.75 C3 12 3 12 5.3125 13.875 C8.63818428 16.50461083 12.17313837 18.2147643 16 20 C16.2990625 19.37609375 16.598125 18.7521875 16.90625 18.109375 C18.03620766 15.93017094 19.12033834 14.56638472 21 13 C21.66 13 22.32 13 23 13 C22.01 15.97 21.02 18.94 20 22 C21.32 22.99 22.64 23.98 24 25 C23.40126897 28.80375314 22.28695812 31.73611804 20.48828125 35.1328125 C19.97716797 36.10476562 19.46605469 37.07671875 18.93945312 38.078125 C18.40255859 39.08359375 17.86566406 40.0890625 17.3125 41.125 C16.79494141 42.10726562 16.27738281 43.08953125 15.74414062 44.1015625 C12.22279189 50.76712923 8.62463553 57.39013185 5 64 C0.65586887 63.38822176 -2.59429835 61.80866698 -6.4375 59.7265625 C-7.34133423 59.23994644 -7.34133423 59.23994644 -8.26342773 58.74349976 C-10.17898226 57.71008401 -12.08941775 56.66757416 -14 55.625 C-15.28354428 54.93171763 -16.56739571 54.23900361 -17.8515625 53.546875 C-22.95702098 50.787094 -28.04324325 48.02182168 -33 45 C-31.33918253 38.95421935 -28.27905319 33.75371383 -25.25 28.3125 C-24.73695312 27.38244141 -24.22390625 26.45238281 -23.6953125 25.49414062 C-22.6612772 23.61962689 -21.6254773 21.74608545 -20.58789062 19.87353516 C-18.03848923 15.25999665 -15.51908573 10.63014261 -13 6 C-8.25 6.875 -8.25 6.875 -6 8 C-4.02 5.36 -2.04 2.72 0 0 Z M-18.3125 25.6875 C-20.31448425 27.89659946 -20.31448425 27.89659946 -19.75 30.75 C-19.5025 31.4925 -19.255 32.235 -19 33 C-17.35 33.33 -15.7 33.66 -14 34 C-14.99 33.34 -15.98 32.68 -17 32 C-17.33 31.01 -17.66 30.02 -18 29 C-14.04 29.99 -14.04 29.99 -10 31 C-9.67 29.35 -9.34 27.7 -9 26 C-12.66607968 23.55594688 -14.63786562 23.00601005 -18.3125 25.6875 Z M-7.875 31.1875 C-9.36366316 33.58590175 -9.29178308 35.22806071 -9 38 C-7.87465895 39.35618499 -7.87465895 39.35618499 -4.9375 39.0625 C-3.968125 39.041875 -2.99875 39.02125 -2 39 C-3.32 38.34 -4.64 37.68 -6 37 C-5.8125 35.125 -5.8125 35.125 -5 33 C-2.4375 31.75 -2.4375 31.75 0 31 C0 30.67 0 30.34 0 30 C-4.1460881 29.65221828 -4.1460881 29.65221828 -7.875 31.1875 Z M0 31 C-0.33 32.32 -0.66 33.64 -1 35 C-0.34 34.67 0.32 34.34 1 34 C0.67 33.01 0.34 32.02 0 31 Z M2.8125 36.1875 C0.78332024 37.8815484 0.78332024 37.8815484 0.5 40.5 C0.79819692 43.09642209 0.79819692 43.09642209 2.6875 44.875 C5.61922354 46.30124388 6.95326554 46.04230389 10 45 C12.34973818 43.10244856 12.34973818 43.10244856 12.125 39.875 C12.08375 38.92625 12.0425 37.9775 12 37 C8.56970123 35.10742137 6.47334592 34.20018364 2.8125 36.1875 Z " fill="#3BA530" transform="translate(113,141)"/>
<path d="M0 0 C3.76658435 4.37381408 6.18249392 9.77348139 8.671875 14.94140625 C9.43371094 14.83441406 10.19554687 14.72742188 10.98046875 14.6171875 C17.7655035 13.82941193 23.62709579 13.3795114 29.671875 16.94140625 C35.19045 21.53484002 38.22188967 26.94004851 39.671875 33.94140625 C39.671875 34.93140625 39.671875 35.92140625 39.671875 36.94140625 C32.8000629 39.07583274 22.81174548 39.3670548 16.109375 36.50390625 C11.65224425 33.82182538 9.17331483 29.37577686 6.671875 24.94140625 C0.63019079 28.96919572 -0.7823842 32.95845439 -2.328125 39.94140625 C-1.76609375 40.18632813 -1.2040625 40.43125 -0.625 40.68359375 C2.09053354 42.17067164 4.13578938 43.98203407 6.421875 46.06640625 C7.22109375 46.79085937 8.0203125 47.5153125 8.84375 48.26171875 C9.44703125 48.81601563 10.0503125 49.3703125 10.671875 49.94140625 C7.671875 49.94140625 7.671875 49.94140625 6.171875 48.50390625 C5.676875 47.98828125 5.181875 47.47265625 4.671875 46.94140625 C3.186875 46.44640625 3.186875 46.44640625 1.671875 45.94140625 C2.001875 47.92140625 2.331875 49.90140625 2.671875 51.94140625 C1.186875 51.44640625 1.186875 51.44640625 -0.328125 50.94140625 C-0.658125 51.60140625 -0.988125 52.26140625 -1.328125 52.94140625 C-3.328125 51.94140625 -3.328125 51.94140625 -4.328125 48.94140625 C-5.42607218 47.80914822 -6.53206687 46.68385719 -7.671875 45.59375 C-9.81583422 43.45484728 -11.8128988 41.20181831 -13.828125 38.94140625 C-16.90465377 35.5002138 -20.0116429 32.15090505 -23.328125 28.94140625 C-22.338125 28.44640625 -22.338125 28.44640625 -21.328125 27.94140625 C-19.08502487 28.83806967 -16.88058179 29.83287308 -14.703125 30.87890625 C-13.51460938 31.44480469 -12.32609375 32.01070312 -11.1015625 32.59375 C-9.72871094 33.26083984 -9.72871094 33.26083984 -8.328125 33.94140625 C-8.04195313 33.01070312 -7.75578125 32.08 -7.4609375 31.12109375 C-6.25314684 27.7309503 -4.69325595 25.62188799 -2.328125 22.94140625 C-3.1015625 22.80605469 -3.875 22.67070313 -4.671875 22.53125 C-12.11079269 20.99375092 -17.58170634 19.07980346 -22.328125 12.94140625 C-24.87240944 8.24315373 -26.328125 4.30621358 -26.328125 -1.05859375 C-18.06301274 -4.7049668 -7.51186079 -5.99160325 0 0 Z " fill="#3AA631" transform="translate(284.328125,61.05859375)"/>
<path d="M0 0 C2.475 0.495 2.475 0.495 5 1 C6 7.75 6 7.75 6 10 C6.86625 9.484375 7.7325 8.96875 8.625 8.4375 C12.39403493 6.83217031 14.10885099 6.98088955 18 8 C18.8125 9.625 18.8125 9.625 19 12 C17.53181864 14.24609835 15.84147142 16.02378677 14 18 C16.31 18.66 18.62 19.32 21 20 C21.495 22.475 21.495 22.475 22 25 C18.4912812 28.09592835 15.50802601 29.74194623 11 31 C11.515625 31.391875 12.03125 31.78375 12.5625 32.1875 C13.2740625 33.0846875 13.2740625 33.0846875 14 34 C13.6875 36.6875 13.6875 36.6875 13 39 C8.36048675 40.08278153 5.73673645 39.77880735 1.3125 38.125 C-2.38752278 37.11341742 -4.20233744 36.6597541 -7.765625 38.1796875 C-9.57996102 39.41577023 -11.36624089 40.69385584 -13.125 42.0078125 C-17.96435125 45.36116731 -23.44138741 47.15475412 -29 49 C-29.74378906 49.25007813 -30.48757813 49.50015625 -31.25390625 49.7578125 C-31.83011719 49.83773437 -32.40632813 49.91765625 -33 50 C-35 48 -35 48 -35.1953125 45.1796875 C-35.17210937 44.08914062 -35.14890625 42.99859375 -35.125 41.875 C-35.10695313 40.77929688 -35.08890625 39.68359375 -35.0703125 38.5546875 C-35.04710937 37.71164063 -35.02390625 36.86859375 -35 36 C-33.71416016 35.65388672 -33.71416016 35.65388672 -32.40234375 35.30078125 C-25.65014848 33.37484506 -20.40014644 31.52105284 -15 27 C-15.22816406 26.20335937 -15.45632813 25.40671875 -15.69140625 24.5859375 C-15.97886719 23.52632812 -16.26632812 22.46671875 -16.5625 21.375 C-16.85253906 20.33085937 -17.14257812 19.28671875 -17.44140625 18.2109375 C-18.04102115 14.76420012 -17.88410293 12.37215215 -17 9 C-16.34 8.34 -15.68 7.68 -15 7 C-11.15822926 7.30329769 -8.90572328 8.52475424 -6 11 C-5.9071875 9.948125 -5.9071875 9.948125 -5.8125 8.875 C-4.70798798 4.9667267 -2.71769008 2.99642752 0 0 Z " fill="#E2BD92" transform="translate(351,117)"/>
<path d="M0 0 C4.31905746 1.29571724 4.61789275 1.91002202 6.6875 5.6875 C7.39951268 7.15502452 8.09510368 8.63111209 8.75 10.125 C9.306875 9.444375 9.86375 8.76375 10.4375 8.0625 C12.75 6.125 12.75 6.125 15.4375 6.25 C17.75 7.125 17.75 7.125 18.75 9.125 C19.01156889 14.00761933 18.65080559 17.42723277 17.125 22.0625 C16.39845483 24.59305464 16.39845483 24.59305464 16.75 27.125 C19.10831729 29.69890972 21.69258283 31.67718067 24.453125 33.80859375 C26.75 36.125 26.75 36.125 27.421875 38.91015625 C27.38010379 41.38510035 27.20673517 43.69415391 26.75 46.125 C25.76 46.62 25.76 46.62 24.75 47.125 C22.15233129 45.93083901 19.68821561 44.68475898 17.1875 43.3125 C16.14045898 42.75852539 16.14045898 42.75852539 15.07226562 42.19335938 C9.88221034 39.38942068 9.88221034 39.38942068 8.75 37.125 C5.47918696 35.81810309 3.5831371 36.29613009 0.375 37.5625 C-3.32021547 38.89569965 -6.2790457 39.51241018 -10.25 39.125 C-10.91 38.795 -11.57 38.465 -12.25 38.125 C-12.4375 35.8125 -12.4375 35.8125 -12.25 33.125 C-10.73828125 31.45703125 -10.73828125 31.45703125 -9.25 30.125 C-9.87648438 29.93164062 -10.50296875 29.73828125 -11.1484375 29.5390625 C-11.96570313 29.27867187 -12.78296875 29.01828125 -13.625 28.75 C-14.43710938 28.49476563 -15.24921875 28.23953125 -16.0859375 27.9765625 C-18.25 27.125 -18.25 27.125 -20.25 25.125 C-20.375 22.5 -20.375 22.5 -20.25 20.125 C-17.94 19.135 -15.63 18.145 -13.25 17.125 C-14.2709375 16.0421875 -14.2709375 16.0421875 -15.3125 14.9375 C-17.25 12.125 -17.25 12.125 -17 9.3125 C-16.7525 8.590625 -16.505 7.86875 -16.25 7.125 C-11.31729471 5.4807649 -8.70975807 6.93884408 -4.25 9.125 C-4.270625 7.825625 -4.29125 6.52625 -4.3125 5.1875 C-4.33399454 3.83334367 -4.32148199 2.47743917 -4.25 1.125 C-3.25 0.125 -3.25 0.125 0 0 Z " fill="#E2BD91" transform="translate(108.25,104.875)"/>
<path d="M0 0 C5.56016457 2.31833852 10.17151619 5.51630028 14.8203125 9.31640625 C15.9340625 8.35734375 15.9340625 8.35734375 17.0703125 7.37890625 C19.6362486 5.45445418 20.72646526 4.63964402 23.8203125 4.31640625 C25.9609375 5.3125 25.9609375 5.3125 28.0703125 6.75390625 C28.77671875 7.22699219 29.483125 7.70007813 30.2109375 8.1875 C30.74203125 8.56003906 31.273125 8.93257812 31.8203125 9.31640625 C29.36795796 11.76876079 26.80628314 12.85242007 23.6953125 14.31640625 C21.65480099 15.28781002 21.65480099 15.28781002 19.8203125 17.31640625 C19.64619043 19.24887577 19.55325708 21.18914035 19.5078125 23.12890625 C19.07294195 29.8452403 19.07294195 29.8452403 16.3828125 32.50390625 C12.1972081 35.4644557 8.88493819 36.04112806 3.8203125 35.31640625 C-4.99740448 32.37258186 -9.97706639 26.96537238 -15.1171875 19.50390625 C-16.70000707 14.75544755 -17.00768416 10.26180449 -16.1796875 5.31640625 C-11.77460927 -0.47974931 -7.15700595 -2.24458072 0 0 Z " fill="#E3BD91" transform="translate(156.1796875,239.68359375)"/>
<path d="M0 0 C2.34546913 1.97898958 3.84534047 3.6330032 4.30078125 6.73828125 C4.33835462 13.98994216 2.35868204 18.69265659 -2.48828125 24.23828125 C-7.48677981 29.03012354 -14.01277527 32.61106744 -21.0390625 32.71875 C-25.83131723 32.35977961 -28.62957301 31.05792699 -32 27.6875 C-33.17635297 25.33479407 -33.13359359 23.866748 -33.125 21.25 C-33.12886719 20.07630859 -33.12886719 20.07630859 -33.1328125 18.87890625 C-33 16.6875 -33 16.6875 -32 13.6875 C-34.90766886 8.75710497 -38.94290678 6.88463516 -44 4.6875 C-41.93216817 1.58575225 -41.38031589 0.87517855 -38 -0.3125 C-34.5 -0.75 -34.5 -0.75 -31 -0.3125 C-28.5625 2.0625 -28.5625 2.0625 -27 4.6875 C-27 5.3475 -27 6.0075 -27 6.6875 C-26.49210937 6.27757812 -25.98421875 5.86765625 -25.4609375 5.4453125 C-17.93320032 -0.44718589 -9.37872712 -4.10319312 0 0 Z " fill="#E2BD92" transform="translate(301,250.3125)"/>
<path d="M0 0 C3.76658435 4.37381408 6.18249392 9.77348139 8.671875 14.94140625 C9.45691406 14.84601563 10.24195313 14.750625 11.05078125 14.65234375 C17.16883286 14.00675794 21.90247467 13.71231976 27.671875 15.94140625 C23.3826019 17.37116395 19.29077362 16.96063535 14.80078125 16.87890625 C12.15527942 16.93175023 10.18410201 17.23535552 7.671875 17.94140625 C5.67224472 17.97986068 3.67135867 17.98684906 1.671875 17.94140625 C1.671875 16.27473958 1.671875 14.60807292 1.671875 12.94140625 C1.23875 12.24015625 0.805625 11.53890625 0.359375 10.81640625 C-1.4031613 7.81356663 -2.48753621 4.90294997 -3.58203125 1.61328125 C-4.20708086 -0.26246165 -4.20708086 -0.26246165 -6.328125 -1.05859375 C-8.45130564 -1.15588235 -10.57772191 -1.18836994 -12.703125 -1.18359375 C-13.84523438 -1.18617187 -14.98734375 -1.18875 -16.1640625 -1.19140625 C-19.5026556 -1.15778663 -19.5026556 -1.15778663 -23.328125 -0.05859375 C-23.328125 2.91140625 -23.328125 5.88140625 -23.328125 8.94140625 C-26.33429769 5.93523356 -25.92397816 3.11759027 -26.328125 -1.05859375 C-18.06301274 -4.7049668 -7.51186079 -5.99160325 0 0 Z " fill="#439B3C" transform="translate(284.328125,61.05859375)"/>
<path d="M0 0 C1.1240625 -0.03738281 2.248125 -0.07476562 3.40625 -0.11328125 C6.5 0.3125 6.5 0.3125 8.7734375 2.01171875 C10.59692997 4.44166686 11.61031663 6.58103841 12.625 9.4375 C13.9689 13.23668996 13.9689 13.23668996 16.5 16.3125 C16.17 17.3025 15.84 18.2925 15.5 19.3125 C12.82088015 17.2457504 10.36597232 15.17512163 8 12.75 C3.33991219 8.20641439 -1.18451698 6.69859637 -7.390625 5.15625 C-8.43476563 4.73859375 -8.43476563 4.73859375 -9.5 4.3125 C-9.83 3.3225 -10.16 2.3325 -10.5 1.3125 C-6.99113686 0.25468096 -3.65545524 0.07964868 0 0 Z " fill="#35A832" transform="translate(271.5,58.6875)"/>
<path d="M0 0 C4.50411588 1.14810797 8.08992462 2.50189628 12 5 C12.99 5.33 13.98 5.66 15 6 C14.40984815 11.50808397 13.43336231 16.64878069 12 22 C11.34 21.34 10.68 20.68 10 20 C9.01 21.98 8.02 23.96 7 26 C6.67 25.34 6.34 24.68 6 24 C6.9375 21.875 6.9375 21.875 8 20 C7.34 20 6.68 20 6 20 C5.67 20.99 5.34 21.98 5 23 C4.67 22.34 4.34 21.68 4 21 C4.66551897 19.66609344 5.33237976 18.33285612 6 17 C6.57785323 13.58288716 6.66286947 10.40825387 6 7 C4.21094218 4.74807548 2.4326978 3.62179853 0 2 C0 1.34 0 0.68 0 0 Z " fill="#4F9D3F" transform="translate(128,134)"/>
<path d="M0 0 C2 3 2 3 2.25 6.25 C3.22521606 11.12608032 5.56806128 13.54707082 9 17 C8.01 17.33 7.02 17.66 6 18 C5.29875 17.2575 4.5975 16.515 3.875 15.75 C-2.49096745 9.66081375 -8.33366686 7.0195686 -17 6 C-17 5.01 -17 4.02 -17 3 C-16.236875 2.87625 -15.47375 2.7525 -14.6875 2.625 C-9.78358776 1.79382843 -4.89230526 0.89663246 0 0 Z " fill="#35AA32" transform="translate(312,77)"/>
<path d="M0 0 C0.66 0.33 1.32 0.66 2 1 C1.690625 1.7425 1.38125 2.485 1.0625 3.25 C0.18532731 5.52032931 -0.46606301 7.63542191 -1 10 C-1.33333333 11.33333333 -1.66666667 12.66666667 -2 14 C-2.66 14 -3.32 14 -4 14 C-3.34 16.31 -2.68 18.62 -2 21 C-4.6461764 18.45967066 -7.05715513 15.78573111 -9.4375 13 C-12.07361946 9.94436906 -14.83779501 7.51116278 -18 5 C-18.33 4.01 -18.66 3.02 -19 2 C-13.76727367 3.63958758 -8.84803364 5.38952035 -4 8 C-3.71125 7.05125 -3.4225 6.1025 -3.125 5.125 C-2 2 -2 2 0 0 Z " fill="#34AA38" transform="translate(280,87)"/>
<path d="M0 0 C2.9375 0.75 2.9375 0.75 4.9375 2.75 C5.26765665 5.85347254 5.44281294 7.90781176 3.8125 10.625 C1.05659116 12.27854531 -0.91325452 12.14365568 -4.0625 11.75 C-6 10.6875 -6 10.6875 -7.0625 8.75 C-6.9375 5.1875 -6.9375 5.1875 -6.0625 1.75 C-3.0625 -0.25 -3.0625 -0.25 0 0 Z " fill="#000C12" transform="translate(204.0625,139.25)"/>
<path d="M0 0 C3.625 0.25 3.625 0.25 5.5625 1.4375 C7.01218434 3.91049093 7.04817323 5.42884512 6.625 8.25 C5.5625 10.0625 5.5625 10.0625 3.625 11.25 C0.0625 11.625 0.0625 11.625 -3.375 11.25 C-5.375 8.25 -5.375 8.25 -5.0625 4.625 C-4.18349582 0.30988858 -4.18349582 0.30988858 0 0 Z " fill="#010E15" transform="translate(256.375,147.75)"/>
<path d="M0 0 C1.65 1.32 3.3 2.64 5 4 C4.690625 4.5775 4.38125 5.155 4.0625 5.75 C2.92256867 7.92954724 2.92256867 7.92954724 2.5625 10.1875 C2.376875 10.785625 2.19125 11.38375 2 12 C1.01 12.33 0.02 12.66 -1 13 C-1.33 12.01 -1.66 11.02 -2 10 C-2.99 10.33 -3.98 10.66 -5 11 C-4.01 11.99 -3.02 12.98 -2 14 C-2.99897713 16.99693138 -3.65130253 18.02709413 -6 20 C-6.66 20 -7.32 20 -8 20 C-7.69479473 13.285484 -4.82671135 4.82671135 0 0 Z " fill="#41A336" transform="translate(151,124)"/>
<path d="M0 0 C0.77923828 0.00902344 1.55847656 0.01804688 2.36132812 0.02734375 C4.26185447 0.05066309 6.16222008 0.08652414 8.0625 0.125 C8.0625 0.785 8.0625 1.445 8.0625 2.125 C9.3825 2.455 10.7025 2.785 12.0625 3.125 C10.52142578 3.10759766 10.52142578 3.10759766 8.94921875 3.08984375 C-8.02247415 2.11187683 -8.02247415 2.11187683 -22.8125 8.8125 C-23.18375 9.245625 -23.555 9.67875 -23.9375 10.125 C-24.5975 9.135 -25.2575 8.145 -25.9375 7.125 C-24.42079636 6.32544999 -22.89888002 5.53578612 -21.375 4.75 C-20.52808594 4.30914062 -19.68117187 3.86828125 -18.80859375 3.4140625 C-12.43217543 0.5511808 -6.86946971 -0.15304731 0 0 Z " fill="#32AD5C" transform="translate(172.9375,197.875)"/>
<path d="M0 0 C1.9375 1.75 1.9375 1.75 3 4 C3 5.32 3 6.64 3 8 C2.01 7.67 1.02 7.34 0 7 C-0.33 6.34 -0.66 5.68 -1 5 C-2.32 5 -3.64 5 -5 5 C-3.68 6.65 -2.36 8.3 -1 10 C-1.33 10.66 -1.66 11.32 -2 12 C-2.54269531 11.59007812 -3.08539063 11.18015625 -3.64453125 10.7578125 C-4.35996094 10.21898437 -5.07539063 9.68015625 -5.8125 9.125 C-6.52019531 8.59132813 -7.22789062 8.05765625 -7.95703125 7.5078125 C-9.60456297 6.29185219 -11.29624211 5.13583859 -13 4 C-8.56394058 0.53770972 -5.65934303 -0.85424046 0 0 Z " fill="#DDBD99" transform="translate(270,250)"/>
<path d="M0 0 C7.9381655 -0.47110774 14.58639634 3.08747577 20.5546875 8.1796875 C22.44277643 10.06777643 24.25590672 11.97890367 26 14 C25.67 14.99 25.34 15.98 25 17 C22.32088015 14.9332504 19.86597232 12.86262163 17.5 10.4375 C12.35929841 5.42531595 6.78260041 3.8569838 0 2 C0 1.34 0 0.68 0 0 Z " fill="#0E9333" transform="translate(262,61)"/>
<path d="M0 0 C2.62901288 1.52206009 4.84365964 2.84365964 7 5 C7.1953125 7.3828125 7.1953125 7.3828125 7.125 10.125 C7.10695312 11.03507813 7.08890625 11.94515625 7.0703125 12.8828125 C7.04710937 13.58148438 7.02390625 14.28015625 7 15 C6.01 15.495 6.01 15.495 5 16 C2.6171875 15.00390625 2.6171875 15.00390625 -0.125 13.5625 C-1.03507812 13.08941406 -1.94515625 12.61632812 -2.8828125 12.12890625 C-3.58148438 11.75636719 -4.28015625 11.38382813 -5 11 C-1.34811918 9.92825237 1.26432828 10.23588533 5 11 C4.34 10.34 3.68 9.68 3 9 C2.01 9.33 1.02 9.66 0 10 C0 9.34 0 8.68 0 8 C0.66 8 1.32 8 2 8 C2.33 6.35 2.66 4.7 3 3 C2.01 2.67 1.02 2.34 0 2 C0 1.34 0 0.68 0 0 Z " fill="#D5C68C" transform="translate(128,136)"/>
<path d="M0 0 C8.388543 -0.9826059 14.18018298 1.07991292 21 6 C23.30393114 8.22402602 25.08597967 10.41348603 27 13 C26.01 13.33 25.02 13.66 24 14 C23.29875 13.2575 22.5975 12.515 21.875 11.75 C16.62311925 6.72646189 11.4837883 3.46450511 4.25 2.5 C3.1775 2.335 2.105 2.17 1 2 C0.67 1.34 0.34 0.68 0 0 Z " fill="#109333" transform="translate(294,81)"/>
<path d="M0 0 C5.54003164 4.02911392 8.93737912 8.26731878 10.46484375 15.0703125 C10.70647179 16.70543921 10.86273551 18.35282608 11 20 C10.34 20 9.68 20 9 20 C8.67 17.69 8.34 15.38 8 13 C7.1028125 12.8453125 7.1028125 12.8453125 6.1875 12.6875 C3.60531825 11.87595716 2.68751807 11.10002249 1 9 C0.48828125 6.73828125 0.48828125 6.73828125 0.3125 4.3125 C0.24675781 3.50425781 0.18101562 2.69601563 0.11328125 1.86328125 C0.07589844 1.24839844 0.03851563 0.63351563 0 0 Z " fill="#449C3C" transform="translate(313,78)"/>
<path d="M0 0 C2 1 2 1 3 2 C3.59251079 8.05044668 3.32241475 12.73950997 0 18 C-0.66 18 -1.32 18 -2 18 C-1.52188823 16.22888156 -1.0424722 14.45811517 -0.5625 12.6875 C-0.29566406 11.70136719 -0.02882812 10.71523437 0.24609375 9.69921875 C0.78079425 7.78482474 1.37144538 5.88566385 2 4 C0.78376953 4.01740234 0.78376953 4.01740234 -0.45703125 4.03515625 C-7.70566174 4.09422542 -14.79632201 3.80842879 -22 3 C-22 2.67 -22 2.34 -22 2 C-14.74 2 -7.48 2 0 2 C0 1.34 0 0.68 0 0 Z " fill="#48BBD7" transform="translate(249,163)"/>
<path d="M0 0 C1.45606519 4.52092968 0.27032841 7.51648796 -1 12 C-1.66 12 -2.32 12 -3 12 C-2.67 17.61 -2.34 23.22 -2 29 C-1.34 29 -0.68 29 0 29 C0 31.64 0 34.28 0 37 C-4.33923086 32.66076914 -5.1445668 24.42635645 -5.4375 18.4375 C-5.25648489 12.93665186 -3.05480222 8.03385282 -1 3 C-0.67 2.01 -0.34 1.02 0 0 Z " fill="#31AB5A" transform="translate(282,133)"/>
<path d="M0 0 C0.66 0.33 1.32 0.66 2 1 C1.41584531 4.61393308 0.44519602 7.42476184 -1.28515625 10.64453125 C-1.73310547 11.48564453 -2.18105469 12.32675781 -2.64257812 13.19335938 C-3.11115234 14.05767578 -3.57972656 14.92199219 -4.0625 15.8125 C-4.53494141 16.69615234 -5.00738281 17.57980469 -5.49414062 18.49023438 C-6.65703284 20.66331578 -7.82578375 22.83302284 -9 25 C-11.84337134 20.73494299 -10.86431358 17.86176391 -10 13 C-9.01 13.66 -8.02 14.32 -7 15 C-6.34 15 -5.68 15 -5 15 C-4.01 11.7 -3.02 8.4 -2 5 C-1.34 5 -0.68 5 0 5 C0 3.35 0 1.7 0 0 Z " fill="#44973E" transform="translate(135,165)"/>
<path d="M0 0 C0.40863281 0.55171875 0.81726563 1.1034375 1.23828125 1.671875 C3.17765188 4.23476834 5.17575238 6.74356035 7.1875 9.25 C7.90292969 10.14203125 8.61835938 11.0340625 9.35546875 11.953125 C9.89816406 12.62859375 10.44085938 13.3040625 11 14 C10.01 14.495 10.01 14.495 9 15 C7.35 13.35 5.7 11.7 4 10 C3.67 11.32 3.34 12.64 3 14 C2.34 14 1.68 14 1 14 C1 13.34 1 12.68 1 12 C0.34 12 -0.32 12 -1 12 C-1.08159574 7.83861737 -0.98248524 4.0527516 0 0 Z " fill="#35C1D1" transform="translate(283,172)"/>
<path d="M0 0 C1.32 0.33 2.64 0.66 4 1 C3.34 1.66 2.68 2.32 2 3 C1.82587793 4.93246952 1.73294458 6.8727341 1.6875 8.8125 C1.25262945 15.52883405 1.25262945 15.52883405 -1.4375 18.1875 C-4.58487385 20.41369126 -6.20909514 21.15265712 -10 21.1875 C-11.051875 21.20876953 -11.051875 21.20876953 -12.125 21.23046875 C-14 21 -14 21 -16 19 C-13.09224941 17.54612471 -10.39561107 17.97803991 -7.19140625 18.0625 C-4.81980059 18.1005187 -4.81980059 18.1005187 -2 17 C-1.34 11.39 -0.68 5.78 0 0 Z " fill="#D8BE9D" transform="translate(174,254)"/>
<path d="M0 0 C3.21338932 1.34962351 4.86536595 2.70522995 7.125 5.3125 C5.83586513 5.98404933 4.54359796 6.64958859 3.25 7.3125 C2.53070313 7.68375 1.81140625 8.055 1.0703125 8.4375 C-0.875 9.3125 -0.875 9.3125 -2.875 9.3125 C-2.83375 8.19875 -2.7925 7.085 -2.75 5.9375 C-2.46378141 2.26883975 -2.46378141 2.26883975 -4.875 0.3125 C-2.875 -0.6875 -2.875 -0.6875 0 0 Z " fill="#E1BF93" transform="translate(180.875,244.6875)"/>
<path d="M0 0 C1.17219543 0.78345715 2.33763668 1.57702836 3.5 2.375 C4.47453125 3.03628906 4.47453125 3.03628906 5.46875 3.7109375 C5.9740625 4.13632813 6.479375 4.56171875 7 5 C7 5.66 7 6.32 7 7 C7.66 7 8.32 7 9 7 C8.57405412 8.44096586 8.13373367 9.87768712 7.6875 11.3125 C7.44386719 12.11300781 7.20023437 12.91351563 6.94921875 13.73828125 C5.95817977 16.09964573 4.91925057 17.33879993 3 19 C3.33 16.69 3.66 14.38 4 12 C3.34 11.67 2.68 11.34 2 11 C2.33 10.01 2.66 9.02 3 8 C3.66 8 4.32 8 5 8 C5 7.01 5 6.02 5 5 C3.68 5 2.36 5 1 5 C0.67 3.35 0.34 1.7 0 0 Z " fill="#3BC0D1" transform="translate(303,196)"/>
<path d="M0 0 C3.3 0 6.6 0 10 0 C10 0.66 10 1.32 10 2 C7.03 2 4.06 2 1 2 C1 2.66 1 3.32 1 4 C0.34 4 -0.32 4 -1 4 C-0.938125 4.763125 -0.87625 5.52625 -0.8125 6.3125 C-1.04109572 9.58903872 -1.62123782 9.8761052 -4 12 C-5.36011609 13.98188345 -6.69791204 15.97951869 -8 18 C-8.99 17.67 -9.98 17.34 -11 17 C-9.625 15 -9.625 15 -8 13 C-7.34 13 -6.68 13 -6 13 C-5.7525 12.34 -5.505 11.68 -5.25 11 C-3.67935707 7.23045697 -1.85093631 3.64017475 0 0 Z " fill="#3FBCC0" transform="translate(230,83)"/>
<path d="M0 0 C2.97 0.495 2.97 0.495 6 1 C5 9.57142857 5 9.57142857 4 13 C3.01 13 2.02 13 1 13 C0.67 8.71 0.34 4.42 0 0 Z " fill="#C0BF80" transform="translate(137,139)"/>
<path d="M0 0 C4.875 0.875 4.875 0.875 6 2 C7.85287502 2.07226502 9.70833878 2.0838122 11.5625 2.0625 C12.57441406 2.05347656 13.58632812 2.04445312 14.62890625 2.03515625 C15.41136719 2.02355469 16.19382813 2.01195312 17 2 C16 5 16 5 14 7 C10.55860951 7 8.92439685 6.16303398 5.875 4.625 C4.98554688 4.18414062 4.09609375 3.74328125 3.1796875 3.2890625 C1 2 1 2 0 0 Z " fill="#44A52F" transform="translate(173,240)"/>
<path d="M0 0 C2.31 0 4.62 0 7 0 C5.7934375 1.11375 5.7934375 1.11375 4.5625 2.25 C1.19614827 5.86267015 0.92339018 8.53219639 0.68359375 13.328125 C0.64169922 14.12734375 0.59980469 14.9265625 0.55664062 15.75 C0.51732422 16.575 0.47800781 17.4 0.4375 18.25 C0.39431641 19.09046875 0.35113281 19.9309375 0.30664062 20.796875 C0.20091457 22.86440671 0.09998705 24.93218281 0 27 C-0.33 27 -0.66 27 -1 27 C-1.02892385 22.87501462 -1.04677267 18.75005515 -1.0625 14.625 C-1.07087891 13.449375 -1.07925781 12.27375 -1.08789062 11.0625 C-1.09111328 9.94101563 -1.09433594 8.81953125 -1.09765625 7.6640625 C-1.10289307 6.62717285 -1.10812988 5.5902832 -1.11352539 4.52197266 C-1 2 -1 2 0 0 Z " fill="#4CB9CF" transform="translate(139,156)"/>
<path d="M0 0 C0.7425 0.2475 1.485 0.495 2.25 0.75 C3.5 7.25 3.5 7.25 1.25 11.75 C1.25 8.45 1.25 5.15 1.25 1.75 C0.26 1.75 -0.73 1.75 -1.75 1.75 C-1.79125 2.3275 -1.8325 2.905 -1.875 3.5 C-3.19065958 6.88312465 -5.71552364 7.94222685 -8.75 9.75 C-5.94354839 -0.54032258 -5.94354839 -0.54032258 0 0 Z " fill="#D7BFA0" transform="translate(353.75,117.25)"/>
<path d="M0 0 C0.99 0.495 0.99 0.495 2 1 C2.33 1.99 2.66 2.98 3 4 C3.66 3.67 4.32 3.34 5 3 C4.67 4.98 4.34 6.96 4 9 C9.46864457 7.98408579 14.76390013 6.92908943 20 5 C18.53665795 7.9266841 16.22483901 8.28059562 13.27734375 9.3359375 C9.86145886 10.33199313 6.54068274 10.68386761 3 11 C2.49384702 9.73160474 1.99530901 8.46016898 1.5 7.1875 C1.2215625 6.47980469 0.943125 5.77210938 0.65625 5.04296875 C0 3 0 3 0 0 Z " fill="#4ABECB" transform="translate(243,245)"/>
<path d="M0 0 C1.33333333 2.66666667 2.66666667 5.33333333 4 8 C4.66 8 5.32 8 6 8 C6.66 9.32 7.32 10.64 8 12 C3.94718288 10.77472971 0.55639236 9.30119506 -3 7 C-1.125 1.125 -1.125 1.125 0 0 Z " fill="#429C39" transform="translate(83,179)"/>
<path d="M0 0 C2.97 0.495 2.97 0.495 6 1 C6 1.66 6 2.32 6 3 C5.01 3 4.02 3 3 3 C3 7.95 3 12.9 3 18 C2.34 18 1.68 18 1 18 C0.67 12.06 0.34 6.12 0 0 Z " fill="#44B7D6" transform="translate(202,158)"/>
<path d="M0 0 C-0.33 0.99 -0.66 1.98 -1 3 C-2.65 3 -4.3 3 -6 3 C-2.7129243 6.81300782 0.39727838 8.22972246 5 10 C5 10.33 5 10.66 5 11 C-4.23076923 10.23076923 -4.23076923 10.23076923 -7 7 C-7.4375 4.4375 -7.4375 4.4375 -7 2 C-4 0 -4 0 0 0 Z " fill="#D6BC9D" transform="translate(95,123)"/>
<path d="M0 0 C6.75 1.75 6.75 1.75 9 4 C9.39764263 5.98821313 9.73775349 7.98944339 10 10 C9.67 10 9.34 10 9 10 C8.67 11.98 8.34 13.96 8 16 C7.67 16 7.34 16 7 16 C6.99742187 15.40832031 6.99484375 14.81664062 6.9921875 14.20703125 C6.85045394 9.4161717 6.85045394 9.4161717 4.59765625 5.359375 C3.10188172 4.19091113 1.5534008 3.09068567 0 2 C0 1.34 0 0.68 0 0 Z " fill="#609E45" transform="translate(128,134)"/>
<path d="M0 0 C1.98 0.66 3.96 1.32 6 2 C6 3.98 6 5.96 6 8 C2.9168649 6.80100302 -0.06279492 5.52299523 -3 4 C-2.01 2.68 -1.02 1.36 0 0 Z " fill="#010306" transform="translate(202,141)"/>
<path d="M0 0 C1.44096586 0.42594588 2.87768712 0.86626633 4.3125 1.3125 C5.11300781 1.55613281 5.91351563 1.79976563 6.73828125 2.05078125 C9.09964573 3.04182023 10.33879993 4.08074943 12 6 C11.34 6 10.68 6 10 6 C10.33 7.65 10.66 9.3 11 11 C3.07765152 4.32386364 3.07765152 4.32386364 0 1 C0 0.67 0 0.34 0 0 Z " fill="#33984B" transform="translate(261,89)"/>
<path d="M0 0 C0.68835938 0.59748047 0.68835938 0.59748047 1.390625 1.20703125 C2.00421875 1.73683594 2.6178125 2.26664063 3.25 2.8125 C3.85328125 3.33457031 4.4565625 3.85664063 5.078125 4.39453125 C6.02945313 5.18923828 6.02945313 5.18923828 7 6 C7.63035156 6.52851563 8.26070312 7.05703125 8.91015625 7.6015625 C11.30002127 9.20076189 13.41074214 9.84472655 16.1875 10.5625 C18.85546875 11.25390625 18.85546875 11.25390625 21 12 C21.33 12.66 21.66 13.32 22 14 C16.03435204 13.49228528 11.36190101 11.61407872 6 9 C6 8.34 6 7.68 6 7 C5.34 7 4.68 7 4 7 C0 2.52941176 0 2.52941176 0 0 Z " fill="#2FAC55" transform="translate(211,220)"/>
<path d="M0 0 C0.33 0.66 0.66 1.32 1 2 C0.00390625 4.3828125 0.00390625 4.3828125 -1.4375 7.125 C-1.91058594 8.03507813 -2.38367188 8.94515625 -2.87109375 9.8828125 C-3.24363281 10.58148438 -3.61617187 11.28015625 -4 12 C-4.66 12 -5.32 12 -6 12 C-6 13.32 -6 14.64 -6 16 C-7.32 15.67 -8.64 15.34 -10 15 C-8.7260411 12.96166576 -7.38938077 10.96147874 -6 9 C-5.34 9 -4.68 9 -4 9 C-3.566875 7.329375 -3.566875 7.329375 -3.125 5.625 C-2 2 -2 2 0 0 Z " fill="#39BFBC" transform="translate(179,127)"/>
<path d="M0 0 C2.02408755 0.09002398 4.04544287 0.24641038 6.0625 0.4375 C7.71958984 0.59025391 7.71958984 0.59025391 9.41015625 0.74609375 C10.26480469 0.82988281 11.11945313 0.91367188 12 1 C12.33 2.32 12.66 3.64 13 5 C12.484375 4.67 11.96875 4.34 11.4375 4 C8.21973488 2.67989123 5.4429472 2.86757895 2 3 C1.87625 4.134375 1.7525 5.26875 1.625 6.4375 C1.41875 7.613125 1.2125 8.78875 1 10 C0.01 10.495 0.01 10.495 -1 11 C-1.02688151 9.35425434 -1.04634123 7.70838587 -1.0625 6.0625 C-1.07410156 5.14597656 -1.08570313 4.22945312 -1.09765625 3.28515625 C-1 1 -1 1 0 0 Z " fill="#38ACCA" transform="translate(251,146)"/>
<path d="M0 0 C0.8125 1.625 0.8125 1.625 1 4 C-1.3125 7.25 -1.3125 7.25 -4 10 C-4.66 10 -5.32 10 -6 10 C-6 9.01 -6 8.02 -6 7 C-5.360625 6.7525 -4.72125 6.505 -4.0625 6.25 C-1.50980961 5.03378366 -1.50980961 5.03378366 -1 1 C-4.3 1.66 -7.6 2.32 -11 3 C-6.77319309 -1.22680691 -5.69611211 -1.11445672 0 0 Z " fill="#D4BD9F" transform="translate(369,125)"/>
<path d="M0 0 C-10.37357631 7.66742597 -10.37357631 7.66742597 -16 9 C-15.34 7.68 -14.68 6.36 -14 5 C-12.35 5 -10.7 5 -9 5 C-9 4.34 -9 3.68 -9 3 C-8.01 3 -7.02 3 -6 3 C-6 2.01 -6 1.02 -6 0 C-3.50907189 -1.24546405 -2.58919267 -0.7767578 0 0 Z " fill="#45B9D6" transform="translate(288,238)"/>
<path d="M0 0 C-3.03697329 2.02464886 -4.37859106 2.32895408 -7.875 2.8125 C-12.83926351 3.70519651 -14.90385556 5.07821705 -18 9 C-18.66 8.67 -19.32 8.34 -20 8 C-15.85799395 3.01893806 -12.54988515 0.28274966 -6.11328125 -0.90625 C-3.86954998 -1.00578706 -2.13797069 -0.65635218 0 0 Z " fill="#39BEB1" transform="translate(205,111)"/>
<path d="M0 0 C1.32 0 2.64 0 4 0 C3.25 4.75 3.25 4.75 1 7 C-1.125 6.625 -1.125 6.625 -3 6 C-2.42655063 3.13275314 -2.1385485 2.1385485 0 0 Z " fill="#3D9B39" transform="translate(119,178)"/>
<path d="M0 0 C4.455 0.99 4.455 0.99 9 2 C8 4 8 4 5.4375 5.125 C1.41710538 6.14837318 -1.86509813 6.14258282 -6 6 C-6 5.67 -6 5.34 -6 5 C-4.865625 4.87625 -3.73125 4.7525 -2.5625 4.625 C-0.7990625 4.315625 -0.7990625 4.315625 1 4 C1.33 3.34 1.66 2.68 2 2 C1.34 2 0.68 2 0 2 C0 1.34 0 0.68 0 0 Z " fill="#34A845" transform="translate(146,150)"/>
<path d="M0 0 C0.99 0.99 1.98 1.98 3 3 C2.05016642 4.50539661 1.08988109 6.00420347 0.125 7.5 C-0.40867187 8.3353125 -0.94234375 9.170625 -1.4921875 10.03125 C-1.98976563 10.6809375 -2.48734375 11.330625 -3 12 C-3.66 12 -4.32 12 -5 12 C-4.00933765 7.54201941 -2.53909826 3.80864739 0 0 Z " fill="#36A929" transform="translate(283,85)"/>
<path d="M0 0 C0.99 0 1.98 0 3 0 C3 1.65 3 3.3 3 5 C4.32 5.33 5.64 5.66 7 6 C4.03 8.475 4.03 8.475 1 11 C1.33 9.68 1.66 8.36 2 7 C1.01 7 0.02 7 -1 7 C-1 4 -1 4 1 2 C0.67 1.34 0.34 0.68 0 0 Z " fill="#3F9B36" transform="translate(283,80)"/>
<path d="M0 0 C0 0.66 0 1.32 0 2 C-2.64 2.33 -5.28 2.66 -8 3 C-8 3.99 -8 4.98 -8 6 C-9.65 5.67 -11.3 5.34 -13 5 C-9.44864279 -0.32703582 -6.21276237 -0.2389524 0 0 Z " fill="#C1BFA7" transform="translate(270,250)"/>
<path d="M0 0 C2.4375 0.6875 2.4375 0.6875 5 2 C5.8125 4.625 5.8125 4.625 6 7 C7.32 7.33 8.64 7.66 10 8 C10 9.65 10 11.3 10 13 C5.48709197 9.66437233 3.31793186 7.66710699 2 2 C1.34 2 0.68 2 0 2 C0 1.34 0 0.68 0 0 Z " fill="#31AD51" transform="translate(282,170)"/>
<path d="M0 0 C0.99 0 1.98 0 3 0 C3.21620175 2.6664882 3.30894168 4.44004321 2 6.8125 C-1.23988962 8.73618446 -4.2825819 8.18282384 -8 8 C-8 7.67 -8 7.34 -8 7 C-7.05125 6.773125 -6.1025 6.54625 -5.125 6.3125 C-1.80676612 5.30916286 -1.80676612 5.30916286 -0.625 2.375 C-0.41875 1.59125 -0.2125 0.8075 0 0 Z " fill="#40B5D5" transform="translate(209,144)"/>
<path d="M0 0 C0.33 0.66 0.66 1.32 1 2 C0.0625 4.625 0.0625 4.625 -1 7 C-3.31 7.33 -5.62 7.66 -8 8 C-7.34 7.67 -6.68 7.34 -6 7 C-6 6.34 -6 5.68 -6 5 C-5.34 5 -4.68 5 -4 5 C-3.566875 4.0409375 -3.566875 4.0409375 -3.125 3.0625 C-2 1 -2 1 0 0 Z " fill="#38BFC6" transform="translate(168,143)"/>
<path d="M0 0 C0.99 0.33 1.98 0.66 3 1 C2.79375 2.093125 2.5875 3.18625 2.375 4.3125 C1.59653475 8.0838401 1.59653475 8.0838401 4 11 C1 11 1 11 -2 10 C-1.85950482 8.52031676 -1.71245174 7.04125484 -1.5625 5.5625 C-1.48128906 4.73878906 -1.40007812 3.91507813 -1.31640625 3.06640625 C-1 1 -1 1 0 0 Z " fill="#3CB9D7" transform="translate(196,140)"/>
<path d="M0 0 C10.55808656 -0.55353075 10.55808656 -0.55353075 15 3 C14.01 3.33 13.02 3.66 12 4 C11.67 3.67 11.34 3.34 11 3 C9.15108054 2.76636119 7.29511969 2.58696365 5.4375 2.4375 C4.42558594 2.35371094 3.41367187 2.26992187 2.37109375 2.18359375 C1.19740234 2.09271484 1.19740234 2.09271484 0 2 C0 1.34 0 0.68 0 0 Z " fill="#D5BA9A" transform="translate(288,249)"/>
<path d="M0 0 C0.66 0.33 1.32 0.66 2 1 C-0.50073333 5.37628333 -4.42293412 7.26514439 -9 9 C-9.99 9 -10.98 9 -12 9 C-10.56351736 7.87370125 -9.12577415 6.7490101 -7.6875 5.625 C-6.88699219 4.99851562 -6.08648437 4.37203125 -5.26171875 3.7265625 C-3.55336788 2.42243282 -1.78827274 1.19218183 0 0 Z " fill="#469A3D" transform="translate(180,96)"/>
<path d="M0 0 C0.66 0.33 1.32 0.66 2 1 C1.1875 3.4375 1.1875 3.4375 0 6 C-0.99 6.33 -1.98 6.66 -3 7 C-3.73323796 9.01508358 -3.73323796 9.01508358 -4 11 C-4.66 11 -5.32 11 -6 11 C-6 10.01 -6 9.02 -6 8 C-5.34 8 -4.68 8 -4 8 C-3.71125 7.05125 -3.4225 6.1025 -3.125 5.125 C-2 2 -2 2 0 0 Z " fill="#479D3E" transform="translate(280,87)"/>
<path d="M0 0 C2.03819846 2.03819846 2.67841059 3.29417798 3.6875 5.9375 C3.95949219 6.62714844 4.23148437 7.31679687 4.51171875 8.02734375 C5 10 5 10 4 13 C-0.00390625 8.60546875 -0.00390625 8.60546875 -1 7 C-0.67 6.01 -0.34 5.02 0 4 C0 2.68 0 1.36 0 0 Z " fill="#419B36" transform="translate(309,134)"/>
<path d="M0 0 C10.55808656 1.74259681 10.55808656 1.74259681 15 5 C11.69693408 6.10102197 10.28414305 5.95067299 7 5 C6.67 4.34 6.34 3.68 6 3 C2.97065509 2.34227572 2.97065509 2.34227572 0 2 C0 1.34 0 0.68 0 0 Z " fill="#30A93C" transform="translate(262,63)"/>
<path d="M0 0 C1.98 0.99 1.98 0.99 4 2 C4 3.65 4 5.3 4 7 C4.66 7 5.32 7 6 7 C6.33 8.98 6.66 10.96 7 13 C0 4.79310345 0 4.79310345 0 0 Z " fill="#439846" transform="translate(145,205)"/>
<path d="M0 0 C0 0.66 0 1.32 0 2 C-0.99 2.495 -0.99 2.495 -2 3 C-1.42655063 5.86724686 -1.1385485 6.8614515 1 9 C0.34 9.66 -0.32 10.32 -1 11 C-3.0625 8.8125 -3.0625 8.8125 -5 6 C-4.875 3.25 -4.875 3.25 -4 1 C-2 0 -2 0 0 0 Z " fill="#D9BA9A" transform="translate(96,111)"/>
<path d="M0 0 C0.66 0.66 1.32 1.32 2 2 C-1.3 2 -4.6 2 -8 2 C-8 2.66 -8 3.32 -8 4 C-9.32 4.33 -10.64 4.66 -12 5 C-11 2 -11 2 -9.375 0.8125 C-6.13855391 -0.29470524 -3.39386815 -0.25139764 0 0 Z " fill="#D7BE9E" transform="translate(154,239)"/>
<path d="M0 0 C3.63 0.33 7.26 0.66 11 1 C11 2.65 11 4.3 11 6 C7.37 4.35 3.74 2.7 0 1 C0 0.67 0 0.34 0 0 Z " fill="#D3BE96" transform="translate(123,146)"/>
<path d="M0 0 C3.64734979 0.22330713 5.38372835 0.38372835 8 3 C8.125 6.125 8.125 6.125 8 9 C7.67 9 7.34 9 7 9 C6.67 7.35 6.34 5.7 6 4 C3.03 3.67 0.06 3.34 -3 3 C-2.01 2.01 -1.02 1.02 0 0 Z " fill="#02293D" transform="translate(201,139)"/>
<path d="M0 0 C0.66 0 1.32 0 2 0 C2.66 4.62 3.32 9.24 4 14 C0.6133629 10.6133629 0.58036746 9.8662468 0.3125 5.3125 C0.24675781 4.31863281 0.18101562 3.32476562 0.11328125 2.30078125 C0.07589844 1.54152344 0.03851563 0.78226563 0 0 Z " fill="#3F9D35" transform="translate(260,61)"/>
<path d="M0 0 C4.43090471 1.20842856 6.98112756 2.51668565 10 6 C8.35 6 6.7 6 5 6 C4.67 5.34 4.34 4.68 4 4 C2.02111039 3.27306096 0.02045442 2.60183749 -2 2 C-1.34 1.34 -0.68 0.68 0 0 Z " fill="#BEC281" transform="translate(178,244)"/>
<path d="M0 0 C1.32 0.33 2.64 0.66 4 1 C4 1.66 4 2.32 4 3 C5.1446875 3.2165625 5.1446875 3.2165625 6.3125 3.4375 C9 4 9 4 12 5 C12 5.66 12 6.32 12 7 C6.47371099 5.80805531 3.82180842 4.4008703 0 0 Z " fill="#3DBEB6" transform="translate(216,224)"/>
<path d="M0 0 C1.98 0.495 1.98 0.495 4 1 C3.67 1.99 3.34 2.98 3 4 C3.66 4 4.32 4 5 4 C5 4.66 5 5.32 5 6 C3.35 6 1.7 6 0 6 C0 4 0 2 0 0 Z " fill="#38A130" transform="translate(109,172)"/>
<path d="M0 0 C1.65 0.33 3.3 0.66 5 1 C3.25 4.875 3.25 4.875 1 6 C1 5.01 1 4.02 1 3 C-0.65 4.32 -2.3 5.64 -4 7 C-2.79618552 4.50638429 -1.54571278 2.31856917 0 0 Z " fill="#569E43" transform="translate(113,141)"/>
<path d="M0 0 C2.31 0 4.62 0 7 0 C6.21625 0.7425 5.4325 1.485 4.625 2.25 C1.76871373 4.97242945 1.76871373 4.97242945 0 9 C0 6.03 0 3.06 0 0 Z " fill="#38BAC2" transform="translate(139,156)"/>
<path d="M0 0 C1.32 0 2.64 0 4 0 C4 0.66 4 1.32 4 2 C2.02 2.99 2.02 2.99 0 4 C0 2.68 0 1.36 0 0 Z M-3 1 C-2.67 1.99 -2.34 2.98 -2 4 C-1.34 4.33 -0.68 4.66 0 5 C-0.99 5.99 -1.98 6.98 -3 8 C-3.66 7.67 -4.32 7.34 -5 7 C-4.34 5.02 -3.68 3.04 -3 1 Z " fill="#3CC0E0" transform="translate(266,150)"/>
<path d="M0 0 C1.32 0.99 2.64 1.98 4 3 C3.67 5.31 3.34 7.62 3 10 C2.34 9.67 1.68 9.34 1 9 C0.5859375 6.93359375 0.5859375 6.93359375 0.375 4.4375 C0.30023438 3.61121094 0.22546875 2.78492187 0.1484375 1.93359375 C0.09945313 1.29550781 0.05046875 0.65742187 0 0 Z " fill="#3EA235" transform="translate(313,78)"/>
<path d="M0 0 C2.97 0.495 2.97 0.495 6 1 C6.33 1.99 6.66 2.98 7 4 C4 5 4 5 1.8125 4.0625 C1.214375 3.711875 0.61625 3.36125 0 3 C0 2.01 0 1.02 0 0 Z " fill="#3A9F34" transform="translate(95,170)"/>
<path d="M0 0 C3.3 1.65 6.6 3.3 10 5 C8.02 5.99 8.02 5.99 6 7 C5.34 6.67 4.68 6.34 4 6 C4 5.34 4 4.68 4 4 C2.68 3.67 1.36 3.34 0 3 C0 2.01 0 1.02 0 0 Z " fill="#449639" transform="translate(117,155)"/>
<path d="M0 0 C0.66 0 1.32 0 2 0 C1.979375 1.19625 1.95875 2.3925 1.9375 3.625 C1.93117429 7.18004869 2.30111125 10.50555624 3 14 C2.01 13.34 1.02 12.68 0 12 C-0.29296875 9.1796875 -0.29296875 9.1796875 -0.1875 5.875 C-0.16042969 4.77929688 -0.13335937 3.68359375 -0.10546875 2.5546875 C-0.07066406 1.71164063 -0.03585937 0.86859375 0 0 Z " fill="#B0BF74" transform="translate(316,153)"/>
<path d="M0 0 C0.66 0.33 1.32 0.66 2 1 C-1.75 6.875 -1.75 6.875 -4 8 C-4 7.34 -4 6.68 -4 6 C-4.66 6 -5.32 6 -6 6 C-4.60755361 3.21510722 -2.44008012 1.87698471 0 0 Z " fill="#419937" transform="translate(114,143)"/>
<path d="M0 0 C3.37462715 0.54723683 5.08235 1.0549 8 3 C7.67 3.99 7.34 4.98 7 6 C4.525 5.01 4.525 5.01 2 4 C2 3.01 2 2.02 2 1 C1.34 0.67 0.68 0.34 0 0 Z " fill="#DBBF9F" transform="translate(97,112)"/>
<path d="M0 0 C2.45823172 3.68734758 3.01242616 6.69699971 4 11 C2.35 11 0.7 11 -1 11 C-0.34 10.67 0.32 10.34 1 10 C0.67 6.7 0.34 3.4 0 0 Z " fill="#37A862" transform="translate(242,245)"/>
<path d="M0 0 C1.16959987 0.97566112 2.33561177 1.955625 3.5 2.9375 C4.1496875 3.48277344 4.799375 4.02804688 5.46875 4.58984375 C5.9740625 5.05519531 6.479375 5.52054688 7 6 C7 6.33 7 6.66 7 7 C5.02 7 3.04 7 1 7 C0.67 4.69 0.34 2.38 0 0 Z " fill="#3AC0C3" transform="translate(296,189)"/>
<path d="M0 0 C0.33 0.66 0.66 1.32 1 2 C2.98 2 4.96 2 7 2 C7.33 2.66 7.66 3.32 8 4 C6.329375 4.2165625 6.329375 4.2165625 4.625 4.4375 C1.17857953 4.78372035 1.17857953 4.78372035 -1 6 C-1.33 4.35 -1.66 2.7 -2 1 C-1.34 0.67 -0.68 0.34 0 0 Z " fill="#489C43" transform="translate(115,173)"/>
<path d="M0 0 C1.8871875 0.0309375 1.8871875 0.0309375 3.8125 0.0625 C0.65009418 2.17077055 -0.69407469 2.40067465 -4.375 2.6875 C-5.72658203 2.79964844 -5.72658203 2.79964844 -7.10546875 2.9140625 C-8.13607422 2.98753906 -8.13607422 2.98753906 -9.1875 3.0625 C-6.30623588 0.18123588 -3.90053134 -0.06394314 0 0 Z " fill="#C9B68E" transform="translate(107.1875,140.9375)"/>
<path d="M0 0 C1.2065625 0.0309375 1.2065625 0.0309375 2.4375 0.0625 C2.1075 0.7225 1.7775 1.3825 1.4375 2.0625 C0.4475 2.0625 -0.5425 2.0625 -1.5625 2.0625 C-1.5625 4.7025 -1.5625 7.3425 -1.5625 10.0625 C-2.2225 9.7325 -2.8825 9.4025 -3.5625 9.0625 C-3.66015625 2.91015625 -3.66015625 2.91015625 -3.5625 1.0625 C-2.5625 0.0625 -2.5625 0.0625 0 0 Z " fill="#D7BC9C" transform="translate(107.5625,104.9375)"/>
<path d="M0 0 C4.83256305 0.41421969 6.82679218 2.46413986 10 6 C5.56909529 4.79157144 3.01887244 3.48331435 0 0 Z " fill="#519D3D" transform="translate(173,240)"/>
<path d="M0 0 C0.99 0.33 1.98 0.66 3 1 C4.0625 3.3125 4.0625 3.3125 5 6 C5.65213539 7.34050052 6.31379969 8.67661368 7 10 C6.34 10 5.68 10 5 10 C3.7109375 8.3203125 3.7109375 8.3203125 2.375 6.125 C1.92898438 5.40570313 1.48296875 4.68640625 1.0234375 3.9453125 C0 2 0 2 0 0 Z " fill="#43973E" transform="translate(291,84)"/>
<path d="M0 0 C1 2 1 2 0.546875 3.91015625 C0.28390625 4.62042969 0.0209375 5.33070313 -0.25 6.0625 C-0.62898438 7.13177734 -0.62898438 7.13177734 -1.015625 8.22265625 C-2 10 -2 10 -5 11 C-3.77472971 6.94718288 -2.30119506 3.55639236 0 0 Z " fill="#469840" transform="translate(97,153)"/>
<path d="M0 0 C0.66 0.33 1.32 0.66 2 1 C1.690625 1.598125 1.38125 2.19625 1.0625 2.8125 C-0.10209704 5.08956772 -0.10209704 5.08956772 -1 8 C-1.66 7.67 -2.32 7.34 -3 7 C-3.1875 4.625 -3.1875 4.625 -3 2 C-2.01 1.34 -1.02 0.68 0 0 Z " fill="#011622" transform="translate(200,141)"/>
<path d="M0 0 C2.97 0 5.94 0 9 0 C9 1.65 9 3.3 9 5 C4.545 3.02 4.545 3.02 0 1 C0 0.67 0 0.34 0 0 Z " fill="#2CA737" transform="translate(305,82)"/>
<path d="M0 0 C0.66 0 1.32 0 2 0 C1.56179109 4.55737263 1.14958831 7.57653445 -2 11 C-2 9.02 -2 7.04 -2 5 C-1.34 5 -0.68 5 0 5 C0 3.35 0 1.7 0 0 Z " fill="#38C1C4" transform="translate(279,136)"/>
<path d="M0 0 C0.33 0 0.66 0 1 0 C1.33 3.96 1.66 7.92 2 12 C1.01 12.66 0.02 13.32 -1 14 C-0.67 9.38 -0.34 4.76 0 0 Z " fill="#35A83B" transform="translate(284,122)"/>
<path d="M0 0 C1.32 0.66 2.64 1.32 4 2 C2.35 3.32 0.7 4.64 -1 6 C-1.33 5.01 -1.66 4.02 -2 3 C-1.34 2.01 -0.68 1.02 0 0 Z " fill="#3DBCD8" transform="translate(293,227)"/>
<path d="M0 0 C5.875 4.625 5.875 4.625 7 8 C6.34 8 5.68 8 5 8 C4.67 7.34 4.34 6.68 4 6 C3.01 5.67 2.02 5.34 1 5 C0.67 3.35 0.34 1.7 0 0 Z " fill="#30AC5D" transform="translate(204,212)"/>
<path d="M0 0 C0.99 0 1.98 0 3 0 C3 1.32 3 2.64 3 4 C1.35 4.33 -0.3 4.66 -2 5 C-1.34 3.35 -0.68 1.7 0 0 Z " fill="#32AE29" transform="translate(89,182)"/>
<path d="M0 0 C2.31 0.33 4.62 0.66 7 1 C7.33 2.32 7.66 3.64 8 5 C7.34 5 6.68 5 6 5 C5.67 4.34 5.34 3.68 5 3 C1.97065509 2.34227572 1.97065509 2.34227572 -1 2 C-0.67 1.34 -0.34 0.68 0 0 Z " fill="#C5B883" transform="translate(112,139)"/>
<path d="M0 0 C2.475 0.495 2.475 0.495 5 1 C5 1.99 5 2.98 5 4 C3.35 3.67 1.7 3.34 0 3 C0 2.01 0 1.02 0 0 Z " fill="#4F904D" transform="translate(97,166)"/>
<path d="M0 0 C0.33 0.66 0.66 1.32 1 2 C0.34 1.67 -0.32 1.34 -1 1 C-0.67 0.67 -0.34 0.34 0 0 Z " fill="#55AA55" transform="translate(122,183)"/>
<path d="" fill="#2AD42A" transform="translate(0,0)"/>
<path d="M0 0 C2 1 2 1 2 1 Z " fill="#20BF20" transform="translate(116,178)"/>
<path d="" fill="#40BF40" transform="translate(0,0)"/>
<path d="" fill="#2AD42A" transform="translate(0,0)"/>
<path d="" fill="#008000" transform="translate(0,0)"/>
<path d="" fill="#555555" transform="translate(0,0)"/>
<path d="" fill="#000000" transform="translate(0,0)"/>
<path d="" fill="#00FF00" transform="translate(0,0)"/>
<path d="" fill="#408040" transform="translate(0,0)"/>
<path d="" fill="#00FF00" transform="translate(0,0)"/>
<path d="" fill="#808080" transform="translate(0,0)"/>
<path d="" fill="#FFFF00" transform="translate(0,0)"/>
<path d="" fill="#555555" transform="translate(0,0)"/>
</svg>
